<svg width="701" height="71" viewBox="0 0 701 71" fill="none" xmlns="http://www.w3.org/2000/svg">
<path d="M53.8906 14.1094H34.7188V69H19.5312V14.1094H0.453125V1.78125H53.8906V14.1094ZM91.3438 70.1719C81.7188 70.1719 73.875 67.0469 67.8125 60.7969C61.75 54.5156 58.7188 46.3438 58.7188 36.2812C58.7188 25.6562 61.7969 17.0625 67.9531 10.5C74.1094 3.9375 82.2656 0.65625 92.4219 0.65625C102.016 0.65625 109.766 3.79688 115.672 10.0781C121.609 16.3594 124.578 24.6406 124.578 34.9219C124.578 45.4844 121.5 54 115.344 60.4688C109.219 66.9375 101.219 70.1719 91.3438 70.1719ZM92 13.6875C86.6875 13.6875 82.4688 15.6875 79.3438 19.6875C76.2188 23.6562 74.6562 28.9219 74.6562 35.4844C74.6562 42.1406 76.2188 47.4062 79.3438 51.2812C82.4688 55.1562 86.5625 57.0938 91.625 57.0938C96.8438 57.0938 100.984 55.2188 104.047 51.4688C107.109 47.6875 108.641 42.4531 108.641 35.7656C108.641 28.7969 107.156 23.375 104.188 19.5C101.219 15.625 97.1562 13.6875 92 13.6875ZM164.188 70.1719C154.562 70.1719 146.719 67.0469 140.656 60.7969C134.594 54.5156 131.562 46.3438 131.562 36.2812C131.562 25.6562 134.641 17.0625 140.797 10.5C146.953 3.9375 155.109 0.65625 165.266 0.65625C174.859 0.65625 182.609 3.79688 188.516 10.0781C194.453 16.3594 197.422 24.6406 197.422 34.9219C197.422 45.4844 194.344 54 188.188 60.4688C182.062 66.9375 174.062 70.1719 164.188 70.1719ZM164.844 13.6875C159.531 13.6875 155.312 15.6875 152.188 19.6875C149.062 23.6562 147.5 28.9219 147.5 35.4844C147.5 42.1406 149.062 47.4062 152.188 51.2812C155.312 55.1562 159.406 57.0938 164.469 57.0938C169.688 57.0938 173.828 55.2188 176.891 51.4688C179.953 47.6875 181.484 42.4531 181.484 35.7656C181.484 28.7969 180 23.375 177.031 19.5C174.062 15.625 170 13.6875 164.844 13.6875ZM269.094 69H253.812L226.109 26.7656C224.484 24.2969 223.359 22.4375 222.734 21.1875H222.547C222.797 23.5625 222.922 27.1875 222.922 32.0625V69H208.625V1.78125H224.938L251.609 42.7031C252.828 44.5469 253.953 46.375 254.984 48.1875H255.172C254.922 46.625 254.797 43.5469 254.797 38.9531V1.78125H269.094V69ZM331.672 14.1094H312.5V69H297.312V14.1094H278.234V1.78125H331.672V14.1094ZM397.109 69H379.719L369.266 51.7031C368.484 50.3906 367.734 49.2188 367.016 48.1875C366.297 47.1562 365.562 46.2812 364.812 45.5625C364.094 44.8125 363.328 44.25 362.516 43.875C361.734 43.4688 360.875 43.2656 359.938 43.2656H355.859V69H340.719V1.78125H364.719C381.031 1.78125 389.188 7.875 389.188 20.0625C389.188 22.4062 388.828 24.5781 388.109 26.5781C387.391 28.5469 386.375 30.3281 385.062 31.9219C383.75 33.5156 382.156 34.8906 380.281 36.0469C378.438 37.2031 376.375 38.1094 374.094 38.7656V38.9531C375.094 39.2656 376.062 39.7812 377 40.5C377.938 41.1875 378.844 42 379.719 42.9375C380.594 43.875 381.422 44.8906 382.203 45.9844C383.016 47.0469 383.75 48.0938 384.406 49.125L397.109 69ZM355.859 13.125V31.8281H362.422C365.672 31.8281 368.281 30.8906 370.25 29.0156C372.25 27.1094 373.25 24.75 373.25 21.9375C373.25 16.0625 369.734 13.125 362.703 13.125H355.859ZM462.547 69H446.047L441.266 54.0469H417.359L412.625 69H396.219L420.688 1.78125H438.641L462.547 69ZM437.797 42.4219L430.578 19.8281C430.047 18.1406 429.672 16.125 429.453 13.7812H429.078C428.922 15.75 428.531 17.7031 427.906 19.6406L420.594 42.4219H437.797ZM519.125 66.6094C514.219 68.9844 507.812 70.1719 499.906 70.1719C489.594 70.1719 481.484 67.1406 475.578 61.0781C469.672 55.0156 466.719 46.9375 466.719 36.8438C466.719 26.0938 470.031 17.375 476.656 10.6875C483.312 4 491.938 0.65625 502.531 0.65625C509.094 0.65625 514.625 1.48438 519.125 3.14062V17.7188C514.625 15.0312 509.5 13.6875 503.75 13.6875C497.438 13.6875 492.344 15.6719 488.469 19.6406C484.594 23.6094 482.656 28.9844 482.656 35.7656C482.656 42.2656 484.484 47.4531 488.141 51.3281C491.797 55.1719 496.719 57.0938 502.906 57.0938C508.812 57.0938 514.219 55.6562 519.125 52.7812V66.6094ZM586.719 69H567.594L548 39.7969C547.625 39.2344 547.031 38 546.219 36.0938H545.984V69H530.844V1.78125H545.984V33.5625H546.219C546.594 32.6875 547.219 31.4375 548.094 29.8125L566.656 1.78125H584.703L561.266 33.8438L586.719 69ZM633.5 69H593.188V1.78125H631.953V14.1094H608.328V29.0625H630.312V41.3438H608.328V56.7188H633.5V69ZM700.672 69H683.281L672.828 51.7031C672.047 50.3906 671.297 49.2188 670.578 48.1875C669.859 47.1562 669.125 46.2812 668.375 45.5625C667.656 44.8125 666.891 44.25 666.078 43.875C665.297 43.4688 664.438 43.2656 663.5 43.2656H659.422V69H644.281V1.78125H668.281C684.594 1.78125 692.75 7.875 692.75 20.0625C692.75 22.4062 692.391 24.5781 691.672 26.5781C690.953 28.5469 689.938 30.3281 688.625 31.9219C687.312 33.5156 685.719 34.8906 683.844 36.0469C682 37.2031 679.938 38.1094 677.656 38.7656V38.9531C678.656 39.2656 679.625 39.7812 680.562 40.5C681.5 41.1875 682.406 42 683.281 42.9375C684.156 43.875 684.984 44.8906 685.766 45.9844C686.578 47.0469 687.312 48.0938 687.969 49.125L700.672 69ZM659.422 13.125V31.8281H665.984C669.234 31.8281 671.844 30.8906 673.812 29.0156C675.812 27.1094 676.812 24.75 676.812 21.9375C676.812 16.0625 673.297 13.125 666.266 13.125H659.422Z" fill="#FF5D00"/>
</svg>
